<svg xmlns="http://www.w3.org/2000/svg" viewBox="0 0 300 300" width="300" height="300">
  <defs>
    <linearGradient id="book" x1="0%" y1="0%" x2="100%" y2="100%">
      <stop offset="0%" stop-color="#f59e0b"/>
      <stop offset="50%" stop-color="#ef4444"/>
      <stop offset="100%" stop-color="#ec4899"/>
    </linearGradient>
    <linearGradient id="head" x1="0%" y1="0%" x2="100%" y2="100%">
      <stop offset="0%" stop-color="#6366f1"/>
      <stop offset="100%" stop-color="#06b6d4"/>
    </linearGradient>
    <linearGradient id="ring" x1="0%" y1="0%" x2="100%" y2="100%">
      <stop offset="0%" stop-color="#22c55e"/>
      <stop offset="100%" stop-color="#84cc16"/>
    </linearGradient>
  </defs>

  <rect x="0" y="0" width="300" height="300" rx="48" fill="#f8fafc"/>

  <rect x="78" y="78" width="144" height="116" rx="16" fill="url(#book)"/>

  <rect x="106" y="64" width="11" height="26" rx="5" fill="#f59e0b"/>
  <rect x="183" y="64" width="11" height="26" rx="5" fill="#ec4899"/>

  <line x1="92" y1="118" x2="208" y2="118" stroke="#ffffff" stroke-width="3" opacity="0.55"/>
  <line x1="92" y1="142" x2="208" y2="142" stroke="#ffffff" stroke-width="3" opacity="0.55"/>

  <circle cx="106" cy="118" r="9" fill="#a78bfa"/>
  <circle cx="106" cy="142" r="9" fill="#22d3ee"/>
  <circle cx="106" cy="166" r="9" fill="#84cc16"/>

  <circle cx="150" cy="118" r="9" fill="#fbbf24"/>
  <circle cx="150" cy="142" r="9" fill="#fb923c"/>
  <circle cx="150" cy="166" r="9" fill="#34d399"/>

  <circle cx="194" cy="118" r="9" fill="#f472b6"/>
  <circle cx="194" cy="142" r="9" fill="#60a5fa"/>
  <circle cx="194" cy="166" r="9" fill="#facc15"/>

  <circle cx="150" cy="86" r="42" fill="url(#head)" stroke="#f8fafc" stroke-width="6"/>
  <circle cx="150" cy="73" r="13" fill="#ffffff"/>
  <path d="M 122 108 Q 150 84 178 108" fill="none" stroke="#ffffff" stroke-width="9" stroke-linecap="round"/>

  <circle cx="206" cy="100" r="30" fill="url(#ring)" stroke="#f8fafc" stroke-width="6"/>
  <path d="M 193 100 L 202 110 L 220 88" fill="none" stroke="#ffffff" stroke-width="6" stroke-linecap="round" stroke-linejoin="round"/>
</svg>
